<svg width="72" height="77" viewBox="0 0 72 77" fill="none" xmlns="http://www.w3.org/2000/svg">
<path d="M52.6688 55H51.0919V49.3062L32.9573 53.2192V55H31.3803V53.5598L30.1779 53.8207C29.9743 53.8641 29.7574 53.8388 29.5778 53.75C29.3982 53.6612 29.2646 53.5163 29.2143 53.346L28.1192 49.7228C28.014 49.3768 28.2659 49.0235 28.6842 48.933L31.3803 48.3514V44.7826H29.9786C29.5428 44.7826 29.1902 44.4909 29.1902 44.1304V40.5072C29.1902 40.1467 29.5428 39.8551 29.9786 39.8551H31.3803V37.2844C28.5506 35.9964 27 33.3025 27 29.6377V8.80435C27 6.94746 28.8266 5.43478 31.0737 5.43478C33.3208 5.43478 35.1474 6.94565 35.1474 8.80435V15.2011C35.8373 14.7572 36.7046 14.4928 37.6442 14.4928C38.9912 14.4928 40.187 15.0362 40.9295 15.8714C41.672 15.0362 42.8678 14.4928 44.2147 14.4928C45.1543 14.4928 46.0216 14.7572 46.7115 15.2011V3.36957C46.7115 1.42029 48.4221 0.00543478 50.7787 0C50.7831 0 50.7853 0 50.7896 0C50.794 0 50.7962 0 50.8006 0C53.1528 0.00543478 54.8612 1.42029 54.8612 3.36957V26.7663C54.8612 26.9873 55.0889 27.1757 55.3627 27.1757C55.5379 27.1757 55.654 27.0996 55.7088 27.0562L61.1404 22.6522C61.9113 22.0598 62.8947 21.7409 63.9263 21.7409C66.1712 21.7409 68 23.2518 68 25.1105C68 26.0109 67.5751 26.8569 66.8064 27.4928L57.0732 35.4438C56.0614 36.2826 54.5195 37.2627 52.6688 37.4891V39.8569H54.0705C54.5064 39.8569 54.859 40.1485 54.859 40.5091V44.0525L55.93 47.5978C56.0351 47.9438 55.7832 48.2971 55.3627 48.3877L52.6688 48.9692V55ZM52.5 45L51.6688 46.5978L53 48L53.6688 46.0978L52.5 45ZM32.9573 44.7826V48.0109L47.9227 44.7826H32.9573ZM30.7671 43.4783H53.282V41.1594H30.7671V43.4783ZM32.9573 39.8551H51.0919V36.8841C51.0919 36.5235 51.4445 36.2319 51.8803 36.2319C53.6281 36.2319 55.1875 35.1576 55.9606 34.5181L65.6806 26.5761C66.1624 26.1793 66.4209 25.6612 66.4209 25.1087C66.4209 23.971 65.3017 23.0435 63.9241 23.0435C63.2911 23.0435 62.6888 23.2391 62.2267 23.5942L56.8148 27.9801C56.4293 28.2989 55.9103 28.4783 55.3583 28.4783C54.2129 28.4783 53.2799 27.7101 53.2799 26.7663V3.36957C53.2799 2.11594 52.303 1.30616 50.7874 1.30435C49.2718 1.30616 48.2885 2.11594 48.2885 3.36957V25.1087C48.2885 26.9656 46.4597 28.4783 44.2147 28.4783C42.3268 28.4783 40.6908 27.3514 40.2549 25.8822C39.5475 26.3714 38.6364 26.6667 37.6442 26.6667C35.4365 26.6667 33.5705 25.1232 33.5705 23.2971V8.80435C33.5705 7.66667 32.4491 6.73913 31.0737 6.73913C29.6983 6.73913 28.5769 7.66667 28.5769 8.80435V29.6377C28.5769 31.5598 29.0872 34.9801 32.5017 36.2935C32.7799 36.3985 32.9573 36.6304 32.9573 36.8841V39.8551ZM41.7179 23.2971V25.1087C41.7179 26.2083 42.8853 27.1739 44.2147 27.1739C45.5902 27.1739 46.7115 26.2464 46.7115 25.1087V17.8623C46.7115 16.7246 45.5902 15.7971 44.2147 15.7971C42.8393 15.7971 41.7179 16.7246 41.7179 17.8623V23.2971ZM35.1474 17.8623V23.2971C35.1474 24.3967 36.3148 25.3623 37.6442 25.3623C39.0197 25.3623 40.141 24.4348 40.141 23.2971V17.8623C40.141 16.7246 39.0197 15.7971 37.6442 15.7971C36.2688 15.7971 35.1474 16.7246 35.1474 17.8623Z" fill="black"/>
<path d="M32.9573 39.8551H51.0919V36.8841C51.0919 36.5235 51.4445 36.2319 51.8803 36.2319C53.6281 36.2319 55.1875 35.1576 55.9606 34.5181L65.6806 26.5761C66.1624 26.1793 66.4209 25.6612 66.4209 25.1087C66.4209 23.971 65.3017 23.0435 63.9241 23.0435C63.2911 23.0435 62.6888 23.2391 62.2267 23.5942L56.8148 27.9801C56.4293 28.2989 55.9103 28.4783 55.3583 28.4783C54.2129 28.4783 53.2799 27.7101 53.2799 26.7663V3.36957C53.2799 2.11594 52.303 1.30616 50.7874 1.30435C49.2718 1.30616 48.2885 2.11594 48.2885 3.36957V25.1087C48.2885 26.9656 46.4597 28.4783 44.2147 28.4783C42.3268 28.4783 40.6908 27.3514 40.2549 25.8822C39.5475 26.3714 38.6364 26.6667 37.6442 26.6667C35.4365 26.6667 33.5705 25.1232 33.5705 23.2971V8.80435C33.5705 7.66667 32.4491 6.73913 31.0737 6.73913C29.6983 6.73913 28.5769 7.66667 28.5769 8.80435V29.6377C28.5769 31.5598 29.0872 34.9801 32.5017 36.2935C32.7799 36.3985 32.9573 36.6304 32.9573 36.8841V39.8551Z" fill="#FCE7D0"/>
<path d="M35.1474 17.8623V23.2971C35.1474 24.3967 36.3148 25.3623 37.6442 25.3623C39.0197 25.3623 40.141 24.4348 40.141 23.2971V17.8623C40.141 16.7246 39.0197 15.7971 37.6442 15.7971C36.2688 15.7971 35.1474 16.7246 35.1474 17.8623Z" fill="#FCE7D0"/>
<path d="M41.7179 23.2971V25.1087C41.7179 26.2083 42.8853 27.1739 44.2147 27.1739C45.5902 27.1739 46.7115 26.2464 46.7115 25.1087V17.8623C46.7115 16.7246 45.5902 15.7971 44.2147 15.7971C42.8393 15.7971 41.7179 16.7246 41.7179 17.8623V23.2971Z" fill="#FCE7D0"/>
<path d="M30.7671 43.4783H53.282V41.1594H30.7671V43.4783Z" fill="#E84E4E"/>
<path d="M52.5 45L51.6688 46.5978L53 48L53.6688 46.0978L52.5 45Z" fill="#D4EA2C"/>
<path d="M48.5937 45.6377L48.1525 47.3877L49.6525 48.3877L50.1709 46.9226L48.5937 45.6377Z" fill="#D4EA2C"/>
<path d="M44.5623 46.433L44.0623 47.933L45.5 49.5L46 47.5L44.5623 46.433Z" fill="#D4EA2C"/>
<path d="M40.5 47L40.141 48.933L41.8862 50.3062L42.141 48.433L40.5 47Z" fill="#D4EA2C"/>
<path d="M36.1442 48.465L35.4116 50.3062L37.5 51.5L38 49.5L36.1442 48.465Z" fill="#D4EA2C"/>
<path d="M31.9997 49.7228L31.4997 51.2228L32.9997 52.2228L33.4997 50.7228L31.9997 49.7228Z" fill="#D4EA2C"/>
<path d="M28.4351 50.3062L27.9351 51.8062L29.1097 53L28.8255 51.5978L28.4351 50.3062Z" fill="#D4EA2C"/>
<path d="M55.1338 44.5V45.715L55.954 47.215L56.6338 45.5L55.1338 44.5Z" fill="#D4EA2C"/>
<path d="M32.9573 44.7826V48.0109L47.9227 44.7826H32.9573Z" fill="#1E267D"/>
<path d="M56.6688 72H55.0919V66.3062L36.9573 70.2192V72H35.3803V70.5598L34.1779 70.8207C33.9743 70.8641 33.7574 70.8388 33.5778 70.75C33.3982 70.6612 33.2646 70.5163 33.2143 70.346L32.1192 66.7228C32.014 66.3768 32.2659 66.0235 32.6842 65.933L35.3803 65.3514V61.7826H33.9786C33.5428 61.7826 33.1902 61.4909 33.1902 61.1304V57.5072C33.1902 57.1467 33.5428 56.8551 33.9786 56.8551H35.3803V54.2844C32.5506 52.9964 31 50.3025 31 46.6377V25.8043C31 23.9475 32.8266 22.4348 35.0737 22.4348C37.3208 22.4348 39.1474 23.9457 39.1474 25.8043V32.2011C39.8373 31.7572 40.7046 31.4928 41.6442 31.4928C42.9912 31.4928 44.187 32.0362 44.9295 32.8714C45.672 32.0362 46.8678 31.4928 48.2147 31.4928C49.1543 31.4928 50.0216 31.7572 50.7115 32.2011V20.3696C50.7115 18.4203 52.4221 17.0054 54.7787 17C54.7831 17 54.7853 17 54.7896 17C54.794 17 54.7962 17 54.8006 17C57.1528 17.0054 58.8612 18.4203 58.8612 20.3696V43.7663C58.8612 43.9873 59.0889 44.1757 59.3627 44.1757C59.5379 44.1757 59.654 44.0996 59.7088 44.0562L65.1404 39.6522C65.9113 39.0598 66.8947 38.7409 67.9263 38.7409C70.1712 38.7409 72 40.2518 72 42.1105C72 43.0109 71.5751 43.8569 70.8064 44.4928L61.0732 52.4438C60.0614 53.2826 58.5195 54.2627 56.6688 54.4891V56.8569H58.0705C58.5064 56.8569 58.859 57.1485 58.859 57.5091V61.0525L59.93 64.5978C60.0351 64.9438 59.7832 65.2971 59.3627 65.3877L56.6688 65.9692V72ZM56.5 62L55.6688 63.5978L57 65L57.6688 63.0978L56.5 62ZM36.9573 61.7826V65.0109L51.9227 61.7826H36.9573ZM34.7671 60.4783H57.282V58.1594H34.7671V60.4783ZM36.9573 56.8551H55.0919V53.8841C55.0919 53.5235 55.4445 53.2319 55.8803 53.2319C57.6281 53.2319 59.1875 52.1576 59.9606 51.5181L69.6806 43.5761C70.1624 43.1793 70.4209 42.6612 70.4209 42.1087C70.4209 40.971 69.3017 40.0435 67.9241 40.0435C67.2911 40.0435 66.6888 40.2391 66.2267 40.5942L60.8148 44.9801C60.4293 45.2989 59.9103 45.4783 59.3583 45.4783C58.2129 45.4783 57.2799 44.7101 57.2799 43.7663V20.3696C57.2799 19.1159 56.303 18.3062 54.7874 18.3043C53.2718 18.3062 52.2885 19.1159 52.2885 20.3696V42.1087C52.2885 43.9656 50.4597 45.4783 48.2147 45.4783C46.3268 45.4783 44.6908 44.3514 44.2549 42.8822C43.5475 43.3714 42.6364 43.6667 41.6442 43.6667C39.4365 43.6667 37.5705 42.1232 37.5705 40.2971V25.8043C37.5705 24.6667 36.4491 23.7391 35.0737 23.7391C33.6983 23.7391 32.5769 24.6667 32.5769 25.8043V46.6377C32.5769 48.5598 33.0872 51.9801 36.5017 53.2935C36.7799 53.3985 36.9573 53.6304 36.9573 53.8841V56.8551ZM45.7179 40.2971V42.1087C45.7179 43.2083 46.8853 44.1739 48.2147 44.1739C49.5902 44.1739 50.7115 43.2464 50.7115 42.1087V34.8623C50.7115 33.7246 49.5902 32.7971 48.2147 32.7971C46.8393 32.7971 45.7179 33.7246 45.7179 34.8623V40.2971ZM39.1474 34.8623V40.2971C39.1474 41.3967 40.3148 42.3623 41.6442 42.3623C43.0197 42.3623 44.141 41.4348 44.141 40.2971V34.8623C44.141 33.7246 43.0197 32.7971 41.6442 32.7971C40.2688 32.7971 39.1474 33.7246 39.1474 34.8623Z" fill="black"/>
<path d="M36.9573 56.8551H55.0919V53.8841C55.0919 53.5235 55.4445 53.2319 55.8803 53.2319C57.6281 53.2319 59.1875 52.1576 59.9606 51.5181L69.6806 43.5761C70.1624 43.1793 70.4209 42.6612 70.4209 42.1087C70.4209 40.971 69.3017 40.0435 67.9241 40.0435C67.2911 40.0435 66.6888 40.2391 66.2267 40.5942L60.8148 44.9801C60.4293 45.2989 59.9103 45.4783 59.3583 45.4783C58.2129 45.4783 57.2799 44.7101 57.2799 43.7663V20.3696C57.2799 19.1159 56.303 18.3062 54.7874 18.3043C53.2718 18.3062 52.2885 19.1159 52.2885 20.3696V42.1087C52.2885 43.9656 50.4597 45.4783 48.2147 45.4783C46.3268 45.4783 44.6908 44.3514 44.2549 42.8822C43.5475 43.3714 42.6364 43.6667 41.6442 43.6667C39.4365 43.6667 37.5705 42.1232 37.5705 40.2971V25.8043C37.5705 24.6667 36.4491 23.7391 35.0737 23.7391C33.6983 23.7391 32.5769 24.6667 32.5769 25.8043V46.6377C32.5769 48.5598 33.0872 51.9801 36.5017 53.2935C36.7799 53.3985 36.9573 53.6304 36.9573 53.8841V56.8551Z" fill="#FCE7D0"/>
<path d="M39.1474 34.8623V40.2971C39.1474 41.3967 40.3148 42.3623 41.6442 42.3623C43.0197 42.3623 44.141 41.4348 44.141 40.2971V34.8623C44.141 33.7246 43.0197 32.7971 41.6442 32.7971C40.2688 32.7971 39.1474 33.7246 39.1474 34.8623Z" fill="#FCE7D0"/>
<path d="M45.7179 40.2971V42.1087C45.7179 43.2083 46.8853 44.1739 48.2147 44.1739C49.5902 44.1739 50.7115 43.2464 50.7115 42.1087V34.8623C50.7115 33.7246 49.5902 32.7971 48.2147 32.7971C46.8393 32.7971 45.7179 33.7246 45.7179 34.8623V40.2971Z" fill="#FCE7D0"/>
<path d="M34.7671 60.4783H57.282V58.1594H34.7671V60.4783Z" fill="#E84E4E"/>
<path d="M56.5 62L55.6688 63.5978L57 65L57.6688 63.0978L56.5 62Z" fill="#D4EA2C"/>
<path d="M52.5937 62.6377L52.1525 64.3877L53.6525 65.3877L54.1709 63.9226L52.5937 62.6377Z" fill="#D4EA2C"/>
<path d="M48.5623 63.433L48.0623 64.933L49.5 66.5L50 64.5L48.5623 63.433Z" fill="#D4EA2C"/>
<path d="M44.5 64L44.141 65.933L45.8862 67.3062L46.141 65.433L44.5 64Z" fill="#D4EA2C"/>
<path d="M40.1442 65.465L39.4116 67.3062L41.5 68.5L42 66.5L40.1442 65.465Z" fill="#D4EA2C"/>
<path d="M35.9997 66.7228L35.4997 68.2228L36.9997 69.2228L37.4997 67.7228L35.9997 66.7228Z" fill="#D4EA2C"/>
<path d="M32.4351 67.3062L31.9351 68.8062L33.1097 70L32.8255 68.5978L32.4351 67.3062Z" fill="#D4EA2C"/>
<path d="M59.1338 61.5V62.715L59.954 64.215L60.6338 62.5L59.1338 61.5Z" fill="#D4EA2C"/>
<path d="M36.9573 61.7826V65.0109L51.9227 61.7826H36.9573Z" fill="#1E267D"/>
<path d="M16.6089 76H18.3172V70.3062L37.963 74.2192V76H39.6714V74.5598L40.974 74.8207C41.1946 74.8641 41.4295 74.8388 41.6241 74.75C41.8187 74.6612 41.9634 74.5163 42.018 74.346L43.2043 70.7228C43.3182 70.3768 43.0453 70.0235 42.5922 69.933L39.6714 69.3514V65.7826H41.1899C41.6621 65.7826 42.0441 65.4909 42.0441 65.1304V61.5072C42.0441 61.1467 41.6621 60.8551 41.1899 60.8551H39.6714V58.2844C42.7369 56.9964 44.4167 54.3025 44.4167 50.6377V29.8043C44.4167 27.9475 42.4379 26.4348 40.0036 26.4348C37.5692 26.4348 35.5904 27.9457 35.5904 29.8043V36.2011C34.843 35.7572 33.9034 35.4928 32.8855 35.4928C31.4263 35.4928 30.1308 36.0362 29.3265 36.8714C28.5221 36.0362 27.2266 35.4928 25.7674 35.4928C24.7496 35.4928 23.81 35.7572 23.0626 36.2011V24.3696C23.0626 22.4203 21.2095 21.0054 18.6565 21C18.6518 21 18.6494 21 18.6446 21C18.6399 21 18.6375 21 18.6328 21C16.0845 21.0054 14.2338 22.4203 14.2338 24.3696V47.7663C14.2338 47.9873 13.9871 48.1757 13.6905 48.1757C13.5007 48.1757 13.3749 48.0996 13.3156 48.0562L7.43133 43.6522C6.59614 43.0598 5.53081 42.7409 4.41328 42.7409C1.98127 42.7409 7.9751e-05 44.2518 7.9751e-05 46.1105C7.9751e-05 47.0109 0.460383 47.8569 1.2932 48.4928L11.8374 56.4438C12.9336 57.2826 14.604 58.2627 16.6089 58.4891V60.8569H15.0904C14.6182 60.8569 14.2362 61.1485 14.2362 61.5091V65.0525L13.0759 68.5978C12.9621 68.9438 13.2349 69.2971 13.6905 69.3877L16.6089 69.9692V76ZM16.7917 66L17.6922 67.5978L16.2501 69L15.5255 67.0978L16.7917 66ZM37.963 65.7826V69.0109L21.7505 65.7826H37.963ZM40.3357 64.4783H15.9445V62.1594H40.3357V64.4783ZM37.963 60.8551H18.3172V57.8841C18.3172 57.5235 17.9352 57.2319 17.463 57.2319C15.5696 57.2319 13.8803 56.1576 13.0427 55.5181L2.51276 47.5761C1.99077 47.1793 1.71079 46.6612 1.71079 46.1087C1.71079 44.971 2.92323 44.0435 4.41565 44.0435C5.10135 44.0435 5.75384 44.2391 6.25448 44.5942L12.1174 48.9801C12.535 49.2989 13.0973 49.4783 13.6952 49.4783C14.9361 49.4783 15.9469 48.7101 15.9469 47.7663V24.3696C15.9469 23.1159 17.0051 22.3062 18.647 22.3043C20.2889 22.3062 21.3542 23.1159 21.3542 24.3696V46.1087C21.3542 47.9656 23.3354 49.4783 25.7674 49.4783C27.8127 49.4783 29.5851 48.3514 30.0573 46.8822C30.8236 47.3714 31.8107 47.6667 32.8855 47.6667C35.2772 47.6667 37.2987 46.1232 37.2987 44.2971V29.8043C37.2987 28.6667 38.5135 27.7391 40.0036 27.7391C41.4936 27.7391 42.7084 28.6667 42.7084 29.8043V50.6377C42.7084 52.5598 42.1556 55.9801 38.4566 57.2935C38.1552 57.3985 37.963 57.6304 37.963 57.8841V60.8551ZM28.4723 44.2971V46.1087C28.4723 47.2083 27.2077 48.1739 25.7674 48.1739C24.2774 48.1739 23.0626 47.2464 23.0626 46.1087V38.8623C23.0626 37.7246 24.2774 36.7971 25.7674 36.7971C27.2575 36.7971 28.4723 37.7246 28.4723 38.8623V44.2971ZM35.5904 38.8623V44.2971C35.5904 45.3967 34.3257 46.3623 32.8855 46.3623C31.3955 46.3623 30.1806 45.4348 30.1806 44.2971V38.8623C30.1806 37.7246 31.3955 36.7971 32.8855 36.7971C34.3755 36.7971 35.5904 37.7246 35.5904 38.8623Z" fill="black"/>
<path d="M37.963 60.8551H18.3172V57.8841C18.3172 57.5235 17.9352 57.2319 17.463 57.2319C15.5696 57.2319 13.8803 56.1576 13.0427 55.5181L2.51276 47.5761C1.99077 47.1793 1.71079 46.6612 1.71079 46.1087C1.71079 44.971 2.92323 44.0435 4.41565 44.0435C5.10135 44.0435 5.75384 44.2391 6.25448 44.5942L12.1174 48.9801C12.535 49.2989 13.0973 49.4783 13.6952 49.4783C14.9361 49.4783 15.9469 48.7101 15.9469 47.7663V24.3696C15.9469 23.1159 17.0051 22.3062 18.647 22.3043C20.2889 22.3062 21.3542 23.1159 21.3542 24.3696V46.1087C21.3542 47.9656 23.3354 49.4783 25.7674 49.4783C27.8127 49.4783 29.5851 48.3514 30.0573 46.8822C30.8236 47.3714 31.8107 47.6667 32.8855 47.6667C35.2772 47.6667 37.2987 46.1232 37.2987 44.2971V29.8043C37.2987 28.6667 38.5135 27.7391 40.0036 27.7391C41.4936 27.7391 42.7084 28.6667 42.7084 29.8043V50.6377C42.7084 52.5598 42.1556 55.9801 38.4566 57.2935C38.1552 57.3985 37.963 57.6304 37.963 57.8841V60.8551Z" fill="#FCE7D0"/>
<path d="M35.5904 38.8623V44.2971C35.5904 45.3967 34.3257 46.3623 32.8855 46.3623C31.3955 46.3623 30.1806 45.4348 30.1806 44.2971V38.8623C30.1806 37.7246 31.3955 36.7971 32.8855 36.7971C34.3755 36.7971 35.5904 37.7246 35.5904 38.8623Z" fill="#FCE7D0"/>
<path d="M28.4723 44.2971V46.1087C28.4723 47.2083 27.2077 48.1739 25.7674 48.1739C24.2774 48.1739 23.0626 47.2464 23.0626 46.1087V38.8623C23.0626 37.7246 24.2774 36.7971 25.7674 36.7971C27.2575 36.7971 28.4723 37.7246 28.4723 38.8623V44.2971Z" fill="#FCE7D0"/>
<path d="M40.3357 64.4783H15.9445V62.1594H40.3357V64.4783Z" fill="#E84E4E"/>
<path d="M16.7917 66L17.6922 67.5978L16.2501 69L15.5255 67.0978L16.7917 66Z" fill="#D4EA2C"/>
<path d="M21.0236 66.6377L21.5016 68.3877L19.8766 69.3877L19.3149 67.9226L21.0236 66.6377Z" fill="#D4EA2C"/>
<path d="M25.3909 67.433L25.9325 68.933L24.3751 70.5L23.8334 68.5L25.3909 67.433Z" fill="#D4EA2C"/>
<path d="M29.7917 68L30.1806 69.933L28.29 71.3062L28.014 69.433L29.7917 68Z" fill="#D4EA2C"/>
<path d="M34.5105 69.465L35.3042 71.3062L33.0417 72.5L32.5001 70.5L34.5105 69.465Z" fill="#D4EA2C"/>
<path d="M39.0004 70.7228L39.542 72.2228L37.917 73.2228L37.3754 71.7228L39.0004 70.7228Z" fill="#D4EA2C"/>
<path d="M42.862 71.3062L43.4037 72.8062L42.1313 74L42.4391 72.5978L42.862 71.3062Z" fill="#D4EA2C"/>
<path d="M13.9385 65.5V66.715L13.0499 68.215L12.3135 66.5L13.9385 65.5Z" fill="#D4EA2C"/>
<path d="M37.963 65.7826V69.0109L21.7505 65.7826H37.963Z" fill="#1E267D"/>
</svg>
