<svg width="48" height="56" viewBox="0 0 48 56" fill="none" xmlns="http://www.w3.org/2000/svg">
<path d="M32.6688 55H31.0919V49.3062L12.9573 53.2192V55H11.3803V53.5598L10.1779 53.8207C9.97425 53.8641 9.75743 53.8388 9.57783 53.75C9.39824 53.6612 9.26464 53.5163 9.21426 53.346L8.11918 49.7228C8.01405 49.3768 8.26592 49.0235 8.68424 48.933L11.3803 48.3514V44.7826H9.97863C9.54279 44.7826 9.19017 44.4909 9.19017 44.1304V40.5072C9.19017 40.1467 9.54279 39.8551 9.97863 39.8551H11.3803V37.2844C8.55064 35.9964 7 33.3025 7 29.6377V8.80435C7 6.94746 8.8266 5.43478 11.0737 5.43478C13.3208 5.43478 15.1474 6.94565 15.1474 8.80435V15.2011C15.8373 14.7572 16.7046 14.4928 17.6442 14.4928C18.9912 14.4928 20.187 15.0362 20.9295 15.8714C21.672 15.0362 22.8678 14.4928 24.2147 14.4928C25.1543 14.4928 26.0216 14.7572 26.7115 15.2011V3.36957C26.7115 1.42029 28.4221 0.00543478 30.7787 0C30.7831 0 30.7853 0 30.7896 0C30.794 0 30.7962 0 30.8006 0C33.1528 0.00543478 34.8612 1.42029 34.8612 3.36957V26.7663C34.8612 26.9873 35.0889 27.1757 35.3627 27.1757C35.5379 27.1757 35.654 27.0996 35.7088 27.0562L41.1404 22.6522C41.9113 22.0598 42.8947 21.7409 43.9263 21.7409C46.1712 21.7409 48 23.2518 48 25.1105C48 26.0109 47.5751 26.8569 46.8064 27.4928L37.0732 35.4438C36.0614 36.2826 34.5195 37.2627 32.6688 37.4891V39.8569H34.0705C34.5064 39.8569 34.859 40.1485 34.859 40.5091V44.0525L35.93 47.5978C36.0351 47.9438 35.7832 48.2971 35.3627 48.3877L32.6688 48.9692V55ZM32.5 45L31.6688 46.5978L33 48L33.6688 46.0978L32.5 45ZM12.9573 44.7826V48.0109L27.9227 44.7826H12.9573ZM10.7671 43.4783H33.282V41.1594H10.7671V43.4783ZM12.9573 39.8551H31.0919V36.8841C31.0919 36.5235 31.4445 36.2319 31.8803 36.2319C33.6281 36.2319 35.1875 35.1576 35.9606 34.5181L45.6806 26.5761C46.1624 26.1793 46.4209 25.6612 46.4209 25.1087C46.4209 23.971 45.3017 23.0435 43.9241 23.0435C43.2911 23.0435 42.6888 23.2391 42.2267 23.5942L36.8148 27.9801C36.4293 28.2989 35.9103 28.4783 35.3583 28.4783C34.2129 28.4783 33.2799 27.7101 33.2799 26.7663V3.36957C33.2799 2.11594 32.303 1.30616 30.7874 1.30435C29.2718 1.30616 28.2885 2.11594 28.2885 3.36957V25.1087C28.2885 26.9656 26.4597 28.4783 24.2147 28.4783C22.3268 28.4783 20.6908 27.3514 20.2549 25.8822C19.5475 26.3714 18.6364 26.6667 17.6442 26.6667C15.4365 26.6667 13.5705 25.1232 13.5705 23.2971V8.80435C13.5705 7.66667 12.4491 6.73913 11.0737 6.73913C9.69829 6.73913 8.57692 7.66667 8.57692 8.80435V29.6377C8.57692 31.5598 9.08723 34.9801 12.5017 36.2935C12.7799 36.3985 12.9573 36.6304 12.9573 36.8841V39.8551ZM21.7179 23.2971V25.1087C21.7179 26.2083 22.8853 27.1739 24.2147 27.1739C25.5902 27.1739 26.7115 26.2464 26.7115 25.1087V17.8623C26.7115 16.7246 25.5902 15.7971 24.2147 15.7971C22.8393 15.7971 21.7179 16.7246 21.7179 17.8623V23.2971ZM15.1474 17.8623V23.2971C15.1474 24.3967 16.3148 25.3623 17.6442 25.3623C19.0197 25.3623 20.141 24.4348 20.141 23.2971V17.8623C20.141 16.7246 19.0197 15.7971 17.6442 15.7971C16.2688 15.7971 15.1474 16.7246 15.1474 17.8623Z" fill="black"/>
<path d="M12.9573 39.8551H31.0919V36.8841C31.0919 36.5235 31.4445 36.2319 31.8803 36.2319C33.6281 36.2319 35.1875 35.1576 35.9606 34.5181L45.6806 26.5761C46.1624 26.1793 46.4209 25.6612 46.4209 25.1087C46.4209 23.971 45.3017 23.0435 43.9241 23.0435C43.2911 23.0435 42.6888 23.2391 42.2267 23.5942L36.8148 27.9801C36.4293 28.2989 35.9103 28.4783 35.3583 28.4783C34.2129 28.4783 33.2799 27.7101 33.2799 26.7663V3.36957C33.2799 2.11594 32.303 1.30616 30.7874 1.30435C29.2718 1.30616 28.2885 2.11594 28.2885 3.36957V25.1087C28.2885 26.9656 26.4597 28.4783 24.2147 28.4783C22.3268 28.4783 20.6908 27.3514 20.2549 25.8822C19.5475 26.3714 18.6364 26.6667 17.6442 26.6667C15.4365 26.6667 13.5705 25.1232 13.5705 23.2971V8.80435C13.5705 7.66667 12.4491 6.73913 11.0737 6.73913C9.69829 6.73913 8.57692 7.66667 8.57692 8.80435V29.6377C8.57692 31.5598 9.08723 34.9801 12.5017 36.2935C12.7799 36.3985 12.9573 36.6304 12.9573 36.8841V39.8551Z" fill="#FCE7D0"/>
<path d="M15.1474 17.8623V23.2971C15.1474 24.3967 16.3148 25.3623 17.6442 25.3623C19.0197 25.3623 20.141 24.4348 20.141 23.2971V17.8623C20.141 16.7246 19.0197 15.7971 17.6442 15.7971C16.2688 15.7971 15.1474 16.7246 15.1474 17.8623Z" fill="#FCE7D0"/>
<path d="M21.7179 23.2971V25.1087C21.7179 26.2083 22.8853 27.1739 24.2147 27.1739C25.5902 27.1739 26.7115 26.2464 26.7115 25.1087V17.8623C26.7115 16.7246 25.5902 15.7971 24.2147 15.7971C22.8393 15.7971 21.7179 16.7246 21.7179 17.8623V23.2971Z" fill="#FCE7D0"/>
<path d="M10.7671 43.4783H33.282V41.1594H10.7671V43.4783Z" fill="#E84E4E"/>
<path d="M32.5 45L31.6688 46.5978L33 48L33.6688 46.0978L32.5 45Z" fill="#D4EA2C"/>
<path d="M28.5937 45.6377L28.1525 47.3877L29.6525 48.3877L30.1709 46.9226L28.5937 45.6377Z" fill="#D4EA2C"/>
<path d="M24.5623 46.433L24.0623 47.933L25.5 49.5L26 47.5L24.5623 46.433Z" fill="#D4EA2C"/>
<path d="M20.5 47L20.141 48.933L21.8862 50.3062L22.141 48.433L20.5 47Z" fill="#D4EA2C"/>
<path d="M16.1442 48.465L15.4116 50.3062L17.5 51.5L18 49.5L16.1442 48.465Z" fill="#D4EA2C"/>
<path d="M11.9997 49.7228L11.4997 51.2228L12.9997 52.2228L13.4997 50.7228L11.9997 49.7228Z" fill="#D4EA2C"/>
<path d="M8.43513 50.3062L7.93513 51.8062L9.10968 53L8.82553 51.5978L8.43513 50.3062Z" fill="#D4EA2C"/>
<path d="M35.1338 44.5V45.715L35.954 47.215L36.6338 45.5L35.1338 44.5Z" fill="#D4EA2C"/>
<path d="M12.9573 44.7826V48.0109L27.9227 44.7826H12.9573Z" fill="#1E267D"/>
</svg>
