<svg xmlns="http://www.w3.org/2000/svg" class="nNnDiX" viewBox="0 0 3432.2 2025.7"><rect x="3432.1" y="2025.3" transform="matrix(0.7071 -0.7071 0.7071 0.7071 -426.8412 3020.051)" class="_3BJPNu" width="0" height="0"/><polygon class="_3BJPNu" points="3432.1,2025.3 3432.2,2025.2 3432.2,2025.1 3432.1,2025.3 "/><ellipse class="_3BJPNu" cx="3432.1" cy="2025.3" rx="0" ry="0"/><circle class="_3BJPNu" cx="3432.1" cy="2025.3" r="0"/><polygon class="_3BJPNu" points="3432.1,2025.3 3432.1,2025.3 3432.1,2025.3 3432.1,2025.3 3432.2,2025.2 3432.2,2025.2 3432.1,2025.3  "/><polygon class="_3BJPNu" points="3432.2,2025.3 3432.2,2025.3 3432.2,2025.2 3432.2,2025.3 "/><polygon class="_3BJPNu" points="3432.2,2025.3 3432.2,2025.3 3432.2,2025.3 3432.2,2025.3 "/><polygon class="_3BJPNu" points="3432.1,2025.3 3432.2,2025.7 3432.2,2025.4 3432.1,2025.3 "/><polygon class="_3BJPNu" points="3432.2,2025.3 3432.2,2025.3 3432.2,2025.3 "/><polygon class="_3BJPNu" points="3432.2,2025.3 3432.2,2025.3 3432.2,2025.3 "/><circle class="_3BJPNu" cx="3432.1" cy="2025.3" r="0"/><circle class="_3BJPNu" cx="3432.1" cy="2025.3" r="0"/><circle class="_3BJPNu" cx="3432.1" cy="2025.3" r="0"/><polygon class="_3BJPNu" points="3432.1,2025.3 3432.1,2025.3 3432.1,2025.3 "/><rect x="3432.1" y="2025.3" class="_3BJPNu" width="0" height="0"/><circle class="_3BJPNu" cx="3432.2" cy="2025.3" r="0"/><circle class="_3BJPNu" cx="3432.1" cy="2025.3" r="0"/><circle class="_3BJPNu" cx="3432.2" cy="2025.3" r="0"/><circle class="_3BJPNu" cx="3432.2" cy="2025.3" r="0"/><path class="_3BJPNu" d="M3432.2,2025.7l0-0.4l0,0l0,0.1v-0.1l0,0h0l0,0v0v0l0,0v0h0h0v0l0,0l0,0l0,0v0l0,0l0,0l0-0.1v-0.1l0,0.1l0,0 l0-0.2v-0.5l-0.1,0.7l0,0L3265.5,0h-347.3l514,2025.3l0,0L2545.5,0h-437.6l1324.3,2025.3l0,0L1570.8,0H828.7l2603.4,2025.3h0 L0,163.6v683.9l3432.1,1177.7h0L0,1448.7v576.6h3431.9 M3432.1,2025.3L3432.1,2025.3 M3432.1,2025.3L3432.1,2025.3 M3432.1,2025.3 L3432.1,2025.3 M3432.1,2025.3L3432.1,2025.3 M3432.2,2025.3L3432.2,2025.3L3432.2,2025.3L3432.2,2025.3L3432.2,2025.3 L3432.2,2025.3z M3432.1,2025.3L3432.1,2025.3L3432.1,2025.3L3432.1,2025.3L3432.1,2025.3L3432.1,2025.3z M3432.1,2025.3 L3432.1,2025.3L3432.1,2025.3L3432.1,2025.3L3432.1,2025.3z M3432.1,2025.3L3432.1,2025.3L3432.1,2025.3L3432.1,2025.3 L3432.1,2025.3z M3432.1,2025.3L3432.1,2025.3z M3432.2,2025.3L3432.2,2025.3L3432.2,2025.3L3432.2,2025.3L3432.2,2025.3z M3432.2,2025.3L3432.2,2025.3z M3432.2,2025.3L3432.2,2025.3z M3432.2,2025.3L3432.2,2025.3z M3432.2,2025.3L3432.2,2025.3z M3432.2,2025.3L3432.2,2025.3z M3432.2,2025.3L3432.2,2025.3z"/></svg>